<svg width="805" height="305" viewBox="0 0 805 305" fill="none" xmlns="http://www.w3.org/2000/svg">
<rect width="805" height="305" fill="#201D1D"/>
<rect width="805" height="305" fill="#D9D9D9"/>
<g filter="url(#filter0_i_0_1)">
<path d="M287.5 121.625H256.063C250.854 121.625 243.542 121.458 234.125 121.125V124.062C243.708 124.979 248.542 126.979 248.625 130.062C249.042 139.854 249.25 151.5 249.25 165C249.25 178.208 249 191.354 248.5 204.438C248.417 207.521 243.583 209.521 234 210.438C233.833 211.896 233.833 212.875 234 213.375C242.042 213.125 260.729 213 290.063 213C300.313 213 308.021 211.25 313.188 207.75C318.354 204.25 323.021 198.229 327.188 189.688C326.854 189.021 326.125 188.479 325 188.062C317.417 202.146 303.438 209.188 283.063 209.188H260.5C260.083 190.979 259.875 177.667 259.875 169.25L280.25 169.125C282.042 169.125 283.708 169.417 285.25 170C286.833 170.583 288.083 171.188 289 171.812C289.958 172.396 291.063 173.542 292.313 175.25C293.563 176.958 294.438 178.208 294.938 179C295.438 179.75 296.313 181.333 297.563 183.75C298.813 186.167 299.646 187.729 300.063 188.438C301.354 187.896 302.167 187.333 302.5 186.75C298.333 179.667 296.25 173.146 296.25 167.188C296.25 164.604 296.833 161.458 298 157.75C299.208 154.042 300.708 150.646 302.5 147.562C302.167 146.979 301.354 146.438 300.063 145.938C299.729 146.521 299.063 147.771 298.063 149.688C297.104 151.604 296.458 152.854 296.125 153.438C295.833 153.979 295.229 155 294.313 156.5C293.438 158 292.75 159 292.25 159.5C291.75 160 291 160.75 290 161.75C289.042 162.708 288.104 163.375 287.188 163.75C286.313 164.083 285.271 164.396 284.063 164.688C282.854 164.979 281.583 165.125 280.25 165.125C271.292 165.125 264.5 165.042 259.875 164.875C259.875 154.792 260.125 141.646 260.625 125.438H280.5C300.875 125.438 314.854 132.479 322.438 146.562C323.563 146.146 324.292 145.583 324.625 144.875C320.458 136.375 315.792 130.375 310.625 126.875C305.458 123.375 297.75 121.625 287.5 121.625ZM296.125 148L298.813 142.75C302.313 144 304.521 145.604 305.438 147.562C303.563 150.812 301.979 154.333 300.688 158.125C299.438 161.875 298.813 164.896 298.813 167.188C298.813 172.729 301.021 179.25 305.438 186.75C304.438 188.875 302.313 190.5 299.063 191.625C297.521 189.083 296.396 187.125 295.688 185.75C293.979 182.917 292.625 180.812 291.625 179.438C290.667 178.021 289.208 176.604 287.25 175.188C285.292 173.771 283.125 173.021 280.75 172.938H269.5C269.5 182.146 269.667 193.375 270 206.625H282.938C293.521 206.625 302.125 204.562 308.75 200.438C315.417 196.271 320.458 191.062 323.875 184.812C327.375 186.104 329.583 187.729 330.5 189.688C325.042 198.729 321.813 207.354 320.813 215.562H268.938C252.479 215.562 240.25 215.688 232.25 215.938C231.375 213.229 231.333 210.583 232.125 208C241.25 207.083 245.854 205.854 245.938 204.312C246.438 191.229 246.688 178.125 246.688 165C246.688 151.583 246.479 139.979 246.063 130.188C245.979 128.646 241.333 127.417 232.125 126.5C231.333 123.583 231.417 120.896 232.375 118.438C245.167 118.854 253.646 119.062 257.813 119.062H318.25C319.25 127.229 322.5 135.833 328 144.875C327.042 146.875 324.813 148.5 321.313 149.75C317.896 143.542 312.854 138.375 306.188 134.25C299.563 130.083 290.958 128 280.375 128H270.125C269.708 142.958 269.5 154.438 269.5 162.438C272.125 162.521 275.917 162.562 280.875 162.562C284.375 162.562 287.167 161.396 289.25 159.062C291.333 156.688 293.625 153 296.125 148Z" fill="#101010"/>
</g>
<g filter="url(#filter1_i_0_1)">
<path d="M180.938 215.562C187.271 215.562 193.75 214.125 200.375 211.25C207.042 208.333 212.312 204.062 216.188 198.438C216.188 197.896 215.938 197.438 215.438 197.062C214.979 196.688 214.458 196.5 213.875 196.5C207.625 204.083 198.438 207.875 186.312 207.875C173.521 207.875 163.854 204.021 157.312 196.312C150.812 188.562 147.562 178.938 147.562 167.438C147.562 162.229 148.125 157.208 149.25 152.375C150.417 147.5 152.208 142.854 154.625 138.438C157.083 133.979 160.562 130.375 165.062 127.625C169.604 124.875 174.896 123.5 180.938 123.5C185.062 123.5 188.875 124.146 192.375 125.438C195.875 126.729 198.75 128.25 201 130C203.25 131.75 205.438 134.104 207.562 137.062C209.729 139.979 211.354 142.521 212.438 144.688C213.562 146.812 214.896 149.521 216.438 152.812C217.688 152.646 218.458 152.188 218.75 151.438C215.667 139.062 211 130.583 204.75 126C198.542 121.375 190.604 119.062 180.938 119.062C177.021 119.062 173.021 119.542 168.938 120.5C164.854 121.417 160.646 123.083 156.312 125.5C152.021 127.875 148.229 130.833 144.938 134.375C141.646 137.875 138.938 142.5 136.812 148.25C134.688 153.958 133.625 160.354 133.625 167.438C133.625 174.521 134.688 180.917 136.812 186.625C138.938 192.333 141.646 196.938 144.938 200.438C148.229 203.938 152.021 206.875 156.312 209.25C160.646 211.583 164.854 213.208 168.938 214.125C173.021 215.083 177.021 215.562 180.938 215.562ZM214.875 155.625C213.083 151.625 211.438 148.333 209.938 145.75C208.438 143.125 206.438 140.208 203.938 137C201.438 133.75 198.458 131.229 195 129.438C191.542 127.646 187.667 126.562 183.375 126.188C178.625 126.562 174.479 128.083 170.938 130.75C167.396 133.375 164.646 136.75 162.688 140.875C160.771 145 159.354 149.292 158.438 153.75C157.562 158.167 157.125 162.729 157.125 167.438C157.125 177.938 159.771 186.75 165.062 193.875C170.354 201 178.25 204.812 188.75 205.312C198.917 204.812 206.896 201.021 212.688 193.938C214.312 193.938 215.729 194.479 216.938 195.562C218.146 196.604 218.75 197.854 218.75 199.312C214.542 205.438 208.854 210.104 201.688 213.312C194.521 216.521 187.604 218.125 180.938 218.125C176.771 218.125 172.542 217.625 168.25 216.625C164 215.667 159.583 213.958 155 211.5C150.458 209 146.438 205.896 142.938 202.188C139.438 198.479 136.583 193.625 134.375 187.625C132.167 181.583 131.062 174.854 131.062 167.438C131.062 159.688 132.208 152.771 134.5 146.688C136.792 140.562 139.729 135.667 143.312 132C146.896 128.333 151.083 125.292 155.875 122.875C160.667 120.417 165.312 118.75 169.812 117.875C174.354 116.958 178.917 116.5 183.5 116.5C189.75 116.5 196.542 117.333 203.875 119C211.208 120.667 216.458 121.708 219.625 122.125C218.25 127.5 217.708 132.229 218 136.312C218.292 140.354 219.479 145.312 221.562 151.188C220.354 153.646 218.125 155.125 214.875 155.625Z" fill="#101010"/>
</g>
<g filter="url(#filter2_n_0_1)">
<g filter="url(#filter3_i_0_1)">
<path d="M245.687 165.001C245.687 151.619 245.48 140.049 245.065 130.288C245.039 130.249 244.943 130.132 244.639 129.954C244.163 129.675 243.389 129.376 242.26 129.077C240.016 128.483 236.616 127.953 232.026 127.496L231.341 127.427L231.16 126.762C230.321 123.67 230.396 120.761 231.443 118.075L231.7 117.416L232.407 117.439C245.202 117.856 253.665 118.063 257.812 118.063V119.063C253.646 119.063 245.167 118.855 232.375 118.438C231.417 120.896 231.333 123.584 232.125 126.501C241.333 127.417 245.979 128.646 246.062 130.188C246.479 139.98 246.687 151.584 246.687 165.001C246.687 178.126 246.437 191.23 245.937 204.313C245.854 205.855 241.25 207.084 232.125 208.001C231.333 210.584 231.375 213.23 232.25 215.938C240.25 215.688 252.479 215.563 268.937 215.563H320.812C321.812 207.355 325.042 198.73 330.5 189.688C329.583 187.73 327.375 186.105 323.875 184.813C320.458 191.063 315.417 196.271 308.75 200.438C302.125 204.563 293.521 206.626 282.937 206.626V205.626C293.398 205.626 301.802 203.586 308.222 199.589C314.757 195.504 319.671 190.417 322.997 184.334L323.411 183.576L324.222 183.875C327.802 185.196 330.319 186.945 331.405 189.264L331.632 189.748L331.356 190.205C325.951 199.158 322.783 207.649 321.805 215.684L321.698 216.563H268.937C252.481 216.563 240.265 216.689 232.281 216.938L231.529 216.962L231.299 216.246C230.364 213.353 230.314 210.498 231.169 207.708L231.363 207.072L232.025 207.005C236.573 206.549 239.941 206.019 242.164 205.425C243.282 205.127 244.048 204.827 244.518 204.549C244.823 204.369 244.916 204.251 244.94 204.214C245.438 191.164 245.687 178.093 245.687 165.001ZM249.25 165.001C249.25 151.501 249.042 139.855 248.625 130.063C248.542 126.98 243.708 124.98 234.125 124.063V121.126C243.542 121.459 250.854 121.626 256.062 121.626H287.5C297.75 121.626 305.458 123.376 310.625 126.876C315.792 130.376 320.458 136.376 324.625 144.876C324.292 145.584 323.562 146.146 322.437 146.563C314.854 132.48 300.875 125.438 280.5 125.438V124.438C300.731 124.438 314.958 131.32 322.862 145.267C323.131 145.113 323.328 144.956 323.472 144.802C319.412 136.661 314.929 130.999 310.064 127.704C305.139 124.367 297.666 122.626 287.5 122.626H256.062C251.029 122.626 244.049 122.469 235.125 122.16V123.159C239.51 123.624 242.927 124.337 245.32 125.327C247.826 126.364 249.563 127.869 249.624 130.031C250.041 139.839 250.25 151.496 250.25 165.001C250.25 178.218 249.999 191.372 249.499 204.464C249.44 206.63 247.703 208.137 245.195 209.174C242.787 210.171 239.342 210.885 234.917 211.35C234.889 211.703 234.875 212.007 234.875 212.266C234.875 212.295 234.876 212.323 234.876 212.35C243.383 212.117 261.784 212.001 290.062 212.001C300.229 212.001 307.701 210.259 312.627 206.922C317.487 203.63 321.967 197.955 326.024 189.783C325.882 189.643 325.688 189.498 325.428 189.353C317.524 203.304 303.296 210.188 283.062 210.188H259.522L259.5 209.211C259.083 191.001 258.875 177.679 258.875 169.251V168.256L280.244 168.126H280.25C282.149 168.126 283.934 168.435 285.596 169.062C287.197 169.652 288.515 170.281 289.519 170.959C290.65 171.647 291.848 172.923 293.119 174.66C294.37 176.37 295.263 177.643 295.783 178.466C296.321 179.277 297.216 180.903 298.451 183.292C299.347 185.023 300.021 186.302 300.479 187.139C300.832 186.954 301.091 186.784 301.276 186.634C297.29 179.689 295.25 173.2 295.25 167.188C295.25 164.466 295.862 161.212 297.046 157.451L297.049 157.441C298.196 153.921 299.604 150.668 301.276 147.688C301.095 147.547 300.842 147.389 300.499 147.218C300.134 147.893 299.618 148.869 298.949 150.151C298.009 152.03 297.357 153.292 297.005 153.911L297.006 153.912C296.7 154.479 296.084 155.516 295.176 157.004C294.302 158.501 293.558 159.606 292.957 160.208L292.922 160.243L292.919 160.247L292.916 160.25L292.912 160.253L292.891 160.273L292.889 160.277L292.885 160.28L292.873 160.292L292.87 160.296L292.866 160.298L292.842 160.323L292.839 160.327L292.835 160.33L292.816 160.348L292.813 160.352L292.809 160.355L292.794 160.371L292.791 160.375L292.787 160.378L292.784 160.38L292.781 160.384L292.777 160.387L292.774 160.39L292.771 160.394L292.767 160.397L292.748 160.417L292.745 160.421L292.741 160.423L292.724 160.44L292.722 160.444L292.718 160.447L292.656 160.508L292.653 160.512L292.649 160.515L292.646 160.519L292.642 160.522L292.632 160.533L292.629 160.537L292.625 160.54L292.614 160.55L292.611 160.554L292.607 160.557L292.603 160.561L292.6 160.565L292.597 160.568L292.571 160.593L292.568 160.597L292.564 160.6L292.546 160.619L292.543 160.623L292.539 160.626L292.531 160.633L292.528 160.637L292.524 160.64L292.472 160.693L292.469 160.697L292.465 160.7L292.441 160.723L292.438 160.727L292.434 160.73L292.313 160.851L292.309 160.856L292.306 160.86L292.301 160.864L292.277 160.887L292.273 160.892L292.268 160.896L292.253 160.912L292.249 160.917L292.244 160.921L292.232 160.932L292.228 160.937L292.224 160.941L292.216 160.949L292.212 160.954L292.207 160.958L292.199 160.965L292.195 160.97L292.19 160.974L292.183 160.982L292.179 160.987L292.174 160.991L292.106 161.058L292.102 161.063C292.101 161.065 292.099 161.066 292.098 161.067L292.085 161.08L292.081 161.085C292.08 161.086 292.077 161.087 292.076 161.089L292.046 161.119C292.044 161.12 292.043 161.122 292.042 161.124C292.04 161.125 292.038 161.126 292.037 161.128C292.036 161.129 292.035 161.131 292.033 161.132C292.032 161.134 292.03 161.135 292.028 161.136C292.027 161.138 292.026 161.14 292.024 161.141C292.023 161.143 292.021 161.144 292.019 161.145C292.018 161.147 292.017 161.149 292.016 161.15C292.014 161.151 292.012 161.152 292.011 161.154C292.009 161.155 292.008 161.157 292.007 161.159C292.005 161.16 292.003 161.161 292.002 161.163C292 161.164 291.999 161.166 291.998 161.168C291.996 161.169 291.994 161.17 291.993 161.172L291.962 161.203C291.96 161.204 291.959 161.206 291.958 161.208C291.956 161.209 291.954 161.21 291.953 161.212L291.939 161.225C291.938 161.227 291.937 161.229 291.935 161.23C291.934 161.232 291.932 161.233 291.931 161.234L291.857 161.307C291.856 161.309 291.855 161.311 291.853 161.312C291.852 161.314 291.85 161.315 291.849 161.316L291.839 161.326C291.837 161.327 291.836 161.329 291.835 161.331C291.833 161.332 291.831 161.333 291.83 161.335L291.82 161.344C291.819 161.346 291.818 161.348 291.816 161.349C291.815 161.351 291.813 161.352 291.811 161.353L291.802 161.363C291.8 161.364 291.799 161.366 291.798 161.368C291.796 161.369 291.794 161.37 291.793 161.372L291.778 161.386C291.777 161.388 291.776 161.39 291.774 161.391C291.773 161.393 291.771 161.394 291.769 161.395L291.75 161.415C291.748 161.416 291.747 161.418 291.746 161.42C291.745 161.421 291.743 161.422 291.741 161.423L291.712 161.453C291.71 161.454 291.709 161.456 291.708 161.458L291.703 161.463C291.702 161.464 291.7 161.465 291.698 161.466L291.547 161.618C291.545 161.619 291.544 161.622 291.542 161.624C291.54 161.625 291.538 161.627 291.536 161.629L291.507 161.658C291.505 161.66 291.504 161.662 291.502 161.664C291.5 161.665 291.498 161.667 291.496 161.669L291.426 161.739C291.424 161.741 291.422 161.743 291.421 161.745C291.419 161.746 291.417 161.748 291.415 161.75L291.405 161.759C291.403 161.761 291.402 161.764 291.4 161.765C291.399 161.767 291.396 161.768 291.394 161.77L291.369 161.796C291.367 161.797 291.366 161.8 291.364 161.801C291.362 161.803 291.36 161.805 291.358 161.806L291.322 161.842C291.32 161.844 291.319 161.847 291.317 161.848C291.316 161.85 291.313 161.851 291.311 161.853L291.307 161.858C291.305 161.86 291.303 161.862 291.302 161.864C291.3 161.866 291.298 161.867 291.296 161.869L291.28 161.884C291.278 161.886 291.277 161.889 291.275 161.89C291.274 161.892 291.271 161.893 291.269 161.895L291.254 161.911C291.252 161.913 291.251 161.915 291.249 161.917C291.247 161.918 291.245 161.92 291.243 161.922C291.241 161.923 291.24 161.926 291.238 161.927C291.236 161.929 291.234 161.93 291.232 161.932L291.136 162.029C291.134 162.031 291.133 162.033 291.131 162.035C291.129 162.037 291.127 162.038 291.125 162.04L291.098 162.067C291.096 162.069 291.094 162.071 291.093 162.073C291.091 162.075 291.089 162.076 291.087 162.078L291.054 162.111C291.052 162.113 291.051 162.115 291.049 162.117C291.047 162.119 291.045 162.12 291.043 162.122L291.037 162.128C291.035 162.129 291.034 162.132 291.032 162.133C291.03 162.135 291.028 162.137 291.026 162.138L291.02 162.144C291.019 162.146 291.017 162.148 291.016 162.15C291.014 162.152 291.011 162.153 291.01 162.155L290.981 162.183C290.98 162.185 290.978 162.187 290.976 162.189C290.975 162.191 290.972 162.192 290.971 162.194L290.936 162.228C290.935 162.23 290.933 162.232 290.932 162.234C290.93 162.236 290.927 162.237 290.926 162.239L290.88 162.285C290.878 162.287 290.877 162.289 290.875 162.291C290.873 162.292 290.871 162.294 290.869 162.296L290.846 162.319C290.844 162.321 290.842 162.323 290.841 162.325C290.839 162.327 290.837 162.328 290.835 162.33L290.794 162.371C290.792 162.373 290.791 162.375 290.789 162.377L290.783 162.382C290.781 162.384 290.779 162.386 290.777 162.387L290.707 162.458C289.687 163.477 288.642 164.236 287.566 164.676L287.555 164.68L287.544 164.685C286.619 165.038 285.534 165.361 284.297 165.66C283.006 165.971 281.657 166.126 280.25 166.126C271.288 166.126 264.482 166.042 259.839 165.875L258.875 165.84V164.876C258.875 154.778 259.125 141.62 259.625 125.407L259.655 124.438H280.5V125.438H260.625C260.125 141.646 259.875 154.792 259.875 164.876C264.5 165.042 271.292 165.126 280.25 165.126C281.583 165.126 282.854 164.98 284.062 164.688C285.271 164.396 286.312 164.084 287.187 163.751C288.104 163.376 289.042 162.709 290 161.751L292.25 159.501C292.75 159.001 293.437 158.001 294.312 156.501C295.229 155.001 295.833 153.98 296.125 153.438C296.458 152.855 297.104 151.605 298.062 149.688C299.062 147.771 299.729 146.521 300.062 145.938C301.354 146.438 302.167 146.98 302.5 147.563C300.708 150.646 299.208 154.042 298 157.751C296.833 161.459 296.25 164.605 296.25 167.188C296.25 173.146 298.333 179.667 302.5 186.751C302.167 187.334 301.354 187.896 300.062 188.438C299.646 187.73 298.812 186.167 297.562 183.751C296.312 181.334 295.437 179.751 294.937 179.001C294.437 178.209 293.562 176.959 292.312 175.251C291.062 173.542 289.958 172.396 289 171.813C288.083 171.188 286.833 170.584 285.25 170.001C283.708 169.417 282.042 169.126 280.25 169.126L259.875 169.251C259.875 177.667 260.083 190.98 260.5 209.188H283.062C303.437 209.188 317.417 202.146 325 188.063C326.125 188.48 326.854 189.021 327.187 189.688C323.021 198.23 318.354 204.251 313.187 207.751C308.021 211.251 300.312 213.001 290.062 213.001C260.729 213.001 242.042 213.126 234 213.376C233.833 212.876 233.833 211.896 234 210.438C243.583 209.521 248.417 207.521 248.5 204.438C249 191.355 249.25 178.209 249.25 165.001ZM298.812 167.188C298.812 164.896 299.437 161.876 300.687 158.126C301.979 154.334 303.562 150.813 305.437 147.563C304.521 145.605 302.312 144.001 298.812 142.751L296.125 148.001C293.625 153.001 291.333 156.688 289.25 159.063C287.167 161.396 284.375 162.563 280.875 162.563V161.563C284.128 161.563 286.634 160.491 288.504 158.397C290.502 156.117 292.746 152.521 295.23 147.553L295.234 147.545L298.322 141.513L299.148 141.809C302.731 143.089 305.255 144.815 306.343 147.139L306.564 147.611L306.304 148.063C304.463 151.253 302.906 154.714 301.634 158.448C300.398 162.156 299.812 165.056 299.812 167.188C299.812 172.477 301.926 178.817 306.299 186.243L306.567 186.699L306.343 187.176C305.184 189.639 302.776 191.399 299.39 192.571L298.626 192.835L298.207 192.144C296.677 189.622 295.546 187.654 294.82 186.25C293.121 183.431 291.788 181.362 290.816 180.026L290.797 179.999C289.925 178.71 288.563 177.373 286.664 175.999C284.869 174.7 282.899 174.018 280.733 173.938H270.502C270.513 182.715 270.671 193.277 270.976 205.626H282.937V206.626H270C269.667 193.376 269.5 182.146 269.5 172.938H280.75C283.125 173.021 285.292 173.771 287.25 175.188C289.208 176.605 290.667 178.021 291.625 179.438C292.625 180.813 293.979 182.917 295.687 185.751C296.396 187.126 297.521 189.084 299.062 191.626C302.312 190.501 304.437 188.876 305.437 186.751C301.021 179.251 298.812 172.73 298.812 167.188ZM319.135 118.063L319.242 118.942C320.221 126.933 323.408 135.403 328.854 144.356L329.136 144.819L328.901 145.307C327.773 147.663 325.239 149.41 321.648 150.692L320.847 150.979L320.436 150.233C317.111 144.191 312.197 139.145 305.661 135.101L305.655 135.097C299.237 131.06 290.834 129.001 280.375 129.001H271.099C270.716 142.889 270.518 153.709 270.503 161.463C273.048 161.527 276.504 161.563 280.875 161.563V162.563C275.917 162.563 272.125 162.521 269.5 162.438C269.5 154.438 269.708 142.959 270.125 128.001H280.375C290.958 128.001 299.562 130.084 306.187 134.251C312.854 138.376 317.896 143.542 321.312 149.751C324.812 148.501 327.042 146.876 328 144.876C322.5 135.834 319.25 127.23 318.25 119.063H257.812V118.063H319.135Z" fill="#BB0A0A"/>
</g>
</g>
<g filter="url(#filter4_i_0_1)">
<path d="M156.187 166.513C156.187 161.805 156.625 157.242 157.5 152.826C158.417 148.367 159.833 144.076 161.75 139.951C163.708 135.826 166.458 132.451 170 129.826C173.542 127.159 177.687 125.638 182.437 125.263C186.729 125.638 190.604 126.722 194.062 128.513C197.521 130.305 200.5 132.826 203 136.076C205.5 139.284 207.5 142.201 209 144.826C210.5 147.409 212.146 150.701 213.937 154.701C217.187 154.201 219.417 152.722 220.625 150.263C218.542 144.388 217.354 139.43 217.062 135.388C216.771 131.305 217.312 126.576 218.687 121.201C215.521 120.784 210.271 119.742 202.937 118.076C195.604 116.409 188.812 115.576 182.562 115.576C177.979 115.576 173.417 116.034 168.875 116.951C164.375 117.826 159.729 119.492 154.937 121.951C150.146 124.367 145.958 127.409 142.375 131.076C138.792 134.742 135.854 139.638 133.562 145.763C131.271 151.847 130.125 158.763 130.125 166.513C130.125 173.93 131.229 180.659 133.437 186.701C135.646 192.701 138.5 197.555 142 201.263C145.5 204.972 149.521 208.076 154.062 210.576C158.646 213.034 163.062 214.742 167.312 215.701C171.604 216.701 175.833 217.201 180 217.201C186.667 217.201 218.333 278.784 225.5 275.575C232.667 272.367 213.604 204.513 217.812 198.388C217.812 196.93 217.208 195.68 216 194.638C214.792 193.555 213.375 193.013 211.75 193.013C205.958 200.097 197.979 203.888 187.812 204.388C177.312 203.888 169.417 200.076 164.125 192.951C158.833 185.826 156.187 177.013 156.187 166.513ZM145.625 166.513C145.625 161.232 146.196 156.135 147.339 151.224L147.34 151.218C148.527 146.257 150.351 141.527 152.81 137.033L152.811 137.031C155.357 132.415 158.961 128.685 163.603 125.847L163.607 125.845C168.326 122.988 173.802 121.576 180 121.576C184.231 121.576 188.162 122.238 191.784 123.575C195.352 124.892 198.325 126.458 200.677 128.287C203.016 130.107 205.265 132.532 207.428 135.542C209.607 138.475 211.265 141.062 212.384 143.296L212.819 144.127C213.771 145.962 214.851 148.171 216.066 150.749C216.418 150.638 216.621 150.499 216.742 150.366C213.682 138.298 209.131 130.216 203.221 125.882L203.215 125.878C197.218 121.41 189.506 119.138 180 119.138C176.165 119.138 172.242 119.607 168.228 120.549L168.219 120.551C164.245 121.444 160.127 123.071 155.862 125.449L155.859 125.451C151.659 127.775 147.951 130.668 144.732 134.131L144.728 134.136C141.55 137.516 138.904 142.015 136.813 147.672L136.812 147.674C134.735 153.255 133.687 159.53 133.687 166.513C133.687 173.497 134.735 179.772 136.812 185.352C138.903 190.968 141.549 195.447 144.728 198.828C147.945 202.248 151.65 205.12 155.849 207.445C159.849 209.599 163.722 211.13 167.471 212.049L168.219 212.225L168.228 212.227C172.242 213.169 176.165 213.638 180 213.638V214.638C176.083 214.638 172.083 214.159 168 213.201C163.917 212.284 159.708 210.659 155.375 208.326C151.083 205.951 147.292 203.013 144 199.513C140.708 196.013 138 191.409 135.875 185.701C133.75 179.992 132.687 173.597 132.687 166.513C132.687 159.43 133.75 153.034 135.875 147.326C138 141.576 140.708 136.951 144 133.451C147.292 129.909 151.083 126.951 155.375 124.576C159.708 122.159 163.917 120.492 168 119.576C172.083 118.617 176.083 118.138 180 118.138C189.667 118.138 197.604 120.451 203.812 125.076C210.062 129.659 214.729 138.138 217.812 150.513C217.521 151.263 216.75 151.722 215.5 151.888C213.958 148.597 212.625 145.888 211.5 143.763C210.417 141.597 208.792 139.055 206.625 136.138C204.5 133.18 202.312 130.826 200.062 129.076C197.812 127.326 194.937 125.805 191.437 124.513C187.937 123.222 184.125 122.576 180 122.576C173.958 122.576 168.667 123.951 164.125 126.701C159.625 129.451 156.146 133.055 153.687 137.513C151.271 141.93 149.479 146.576 148.312 151.451C147.187 156.284 146.625 161.305 146.625 166.513C146.625 178.013 149.875 187.638 156.375 195.388C162.917 203.097 172.583 206.951 185.375 206.951C197.5 206.951 206.687 203.159 212.937 195.576C213.521 195.576 214.042 195.763 214.5 196.138C215 196.513 215.25 196.972 215.25 197.513C211.375 203.138 206.104 207.409 199.437 210.326C192.812 213.201 186.333 214.638 180 214.638V213.638C186.178 213.638 192.522 212.237 199.039 209.409C205.416 206.619 210.457 202.571 214.197 197.27C214.149 197.168 214.061 197.058 213.9 196.938L213.883 196.925L213.867 196.913C213.703 196.778 213.532 196.687 213.351 196.633C206.877 204.215 197.498 207.951 185.375 207.951C172.374 207.951 162.392 204.025 155.612 196.036L155.608 196.031C148.937 188.076 145.625 178.214 145.625 166.513ZM157.187 166.513C157.187 176.839 159.786 185.432 164.928 192.354C169.999 199.182 177.574 202.888 187.81 203.386C197.707 202.889 205.393 199.208 210.976 192.38L211.276 192.013H211.75C213.614 192.013 215.263 192.641 216.652 193.88C218.058 195.092 218.812 196.61 218.812 198.388V198.699L218.637 198.955C214.318 205.24 208.483 210.022 201.158 213.301C193.886 216.557 186.83 218.201 180 218.201C175.755 218.201 146.734 262.59 142.375 261.575C138.022 260.594 158.238 213.95 153.59 211.457L153.58 211.452C148.949 208.903 105.572 234.36 102 230.575C98.3871 226.747 134.742 193.142 132.499 187.047L132.498 187.045C130.244 180.877 87 202.904 87 195.388C87 187.54 130.285 151.626 132.627 145.411C134.954 139.191 58.9998 129.401 141.66 130.377C145.324 126.628 137.115 61.539 142 59.0751C146.856 56.5841 164.074 116.866 168.677 115.97C173.283 115.041 230 25.5751 182.562 114.576C188.9 114.576 206.475 63.8955 213.867 65.5755C210.751 65.1654 221.2 67.2419 213.867 65.5755C212.51 70.8802 217.778 131.371 218.06 135.316C218.342 139.234 219.5 144.099 221.567 149.929L221.708 150.326L221.522 150.705C220.14 153.517 217.589 155.151 214.09 155.689L213.336 155.805L213.024 155.11C211.241 151.129 209.611 147.87 208.135 145.328L208.132 145.322C206.662 142.75 204.691 139.873 202.211 136.69L202.207 136.685C199.791 133.545 196.924 131.122 193.602 129.401C190.295 127.687 186.577 126.639 182.436 126.267C177.895 126.639 173.96 128.096 170.601 130.625L170.596 130.63C167.193 133.151 164.546 136.392 162.656 140.371L162.657 140.372C160.773 144.426 159.381 148.645 158.479 153.027C157.619 157.375 157.187 161.87 157.187 166.513Z" fill="#BB0A0A"/>
</g>
<defs>
<filter id="filter0_i_0_1" x="231.561" y="118.438" width="98.939" height="101.5" filterUnits="userSpaceOnUse" color-interpolation-filters="sRGB">
<feFlood flood-opacity="0" result="BackgroundImageFix"/>
<feBlend mode="normal" in="SourceGraphic" in2="BackgroundImageFix" result="shape"/>
<feColorMatrix in="SourceAlpha" type="matrix" values="0 0 0 0 0 0 0 0 0 0 0 0 0 0 0 0 0 0 127 0" result="hardAlpha"/>
<feOffset dy="4"/>
<feGaussianBlur stdDeviation="2"/>
<feComposite in2="hardAlpha" operator="arithmetic" k2="-1" k3="1"/>
<feColorMatrix type="matrix" values="0 0 0 0 0 0 0 0 0 0 0 0 0 0 0 0 0 0 0.25 0"/>
<feBlend mode="normal" in2="shape" result="effect1_innerShadow_0_1"/>
</filter>
<filter id="filter1_i_0_1" x="131.062" y="116.5" width="90.5" height="105.625" filterUnits="userSpaceOnUse" color-interpolation-filters="sRGB">
<feFlood flood-opacity="0" result="BackgroundImageFix"/>
<feBlend mode="normal" in="SourceGraphic" in2="BackgroundImageFix" result="shape"/>
<feColorMatrix in="SourceAlpha" type="matrix" values="0 0 0 0 0 0 0 0 0 0 0 0 0 0 0 0 0 0 127 0" result="hardAlpha"/>
<feOffset dy="4"/>
<feGaussianBlur stdDeviation="2"/>
<feComposite in2="hardAlpha" operator="arithmetic" k2="-1" k3="1"/>
<feColorMatrix type="matrix" values="0 0 0 0 0 0 0 0 0 0 0 0 0 0 0 0 0 0 0.25 0"/>
<feBlend mode="normal" in2="shape" result="effect1_innerShadow_0_1"/>
</filter>
<filter id="filter2_n_0_1" x="230.561" y="117.416" width="101.071" height="99.5459" filterUnits="userSpaceOnUse" color-interpolation-filters="sRGB">
<feFlood flood-opacity="0" result="BackgroundImageFix"/>
<feBlend mode="normal" in="SourceGraphic" in2="BackgroundImageFix" result="shape"/>
<feTurbulence type="fractalNoise" baseFrequency="2 2" stitchTiles="stitch" numOctaves="3" result="noise" seed="4420" />
<feColorMatrix in="noise" type="luminanceToAlpha" result="alphaNoise" />
<feComponentTransfer in="alphaNoise" result="coloredNoise1">
<feFuncA type="discrete" tableValues="1 1 1 1 1 1 1 1 1 1 1 1 1 1 1 1 1 1 1 1 1 1 1 1 1 1 1 1 1 1 1 1 1 1 1 1 1 1 1 1 1 1 1 1 1 1 1 1 1 1 1 0 0 0 0 0 0 0 0 0 0 0 0 0 0 0 0 0 0 0 0 0 0 0 0 0 0 0 0 0 0 0 0 0 0 0 0 0 0 0 0 0 0 0 0 0 0 0 0 0 "/>
</feComponentTransfer>
<feComposite operator="in" in2="shape" in="coloredNoise1" result="noise1Clipped" />
<feFlood flood-color="rgba(0, 0, 0, 0.25)" result="color1Flood" />
<feComposite operator="in" in2="noise1Clipped" in="color1Flood" result="color1" />
<feMerge result="effect1_noise_0_1">
<feMergeNode in="shape" />
<feMergeNode in="color1" />
</feMerge>
</filter>
<filter id="filter3_i_0_1" x="230.561" y="117.416" width="101.071" height="103.546" filterUnits="userSpaceOnUse" color-interpolation-filters="sRGB">
<feFlood flood-opacity="0" result="BackgroundImageFix"/>
<feBlend mode="normal" in="SourceGraphic" in2="BackgroundImageFix" result="shape"/>
<feColorMatrix in="SourceAlpha" type="matrix" values="0 0 0 0 0 0 0 0 0 0 0 0 0 0 0 0 0 0 127 0" result="hardAlpha"/>
<feOffset dy="4"/>
<feGaussianBlur stdDeviation="2"/>
<feComposite in2="hardAlpha" operator="arithmetic" k2="-1" k3="1"/>
<feColorMatrix type="matrix" values="0 0 0 0 0 0 0 0 0 0 0 0 0 0 0 0 0 0 0.25 0"/>
<feBlend mode="normal" in2="shape" result="effect1_innerShadow_0_1"/>
</filter>
<filter id="filter4_i_0_1" x="87" y="59" width="140.128" height="220.696" filterUnits="userSpaceOnUse" color-interpolation-filters="sRGB">
<feFlood flood-opacity="0" result="BackgroundImageFix"/>
<feBlend mode="normal" in="SourceGraphic" in2="BackgroundImageFix" result="shape"/>
<feColorMatrix in="SourceAlpha" type="matrix" values="0 0 0 0 0 0 0 0 0 0 0 0 0 0 0 0 0 0 127 0" result="hardAlpha"/>
<feOffset dy="4"/>
<feGaussianBlur stdDeviation="2"/>
<feComposite in2="hardAlpha" operator="arithmetic" k2="-1" k3="1"/>
<feColorMatrix type="matrix" values="0 0 0 0 0 0 0 0 0 0 0 0 0 0 0 0 0 0 0.25 0"/>
<feBlend mode="normal" in2="shape" result="effect1_innerShadow_0_1"/>
</filter>
</defs>
</svg>
